<mxfile host="Electron" modified="2024-02-24T23:32:09.811Z" agent="Mozilla/5.0 (Windows NT 10.0; Win64; x64) AppleWebKit/537.36 (KHTML, like Gecko) draw.io/23.1.5 Chrome/120.0.6099.109 Electron/28.1.0 Safari/537.36" etag="sE4w9KfF5MuFawvLGy7T" version="23.1.5" type="device">
  <diagram name="Страница — 1" id="cH2YfQKbETEiVlStcZyq">
    <mxGraphModel dx="963" dy="896" grid="1" gridSize="10" guides="1" tooltips="1" connect="1" arrows="1" fold="1" page="1" pageScale="1" pageWidth="827" pageHeight="1169" math="0" shadow="0">
      <root>
        <mxCell id="0" />
        <mxCell id="1" parent="0" />
        <mxCell id="TQOZhMuwaPvxq6sTzAJ--1" value="Begin" style="rounded=1;whiteSpace=wrap;html=1;" vertex="1" parent="1">
          <mxGeometry x="240" y="30" width="120" height="60" as="geometry" />
        </mxCell>
        <mxCell id="TQOZhMuwaPvxq6sTzAJ--13" value="" style="edgeStyle=orthogonalEdgeStyle;rounded=0;orthogonalLoop=1;jettySize=auto;html=1;" edge="1" parent="1" source="TQOZhMuwaPvxq6sTzAJ--4" target="TQOZhMuwaPvxq6sTzAJ--12">
          <mxGeometry relative="1" as="geometry" />
        </mxCell>
        <mxCell id="TQOZhMuwaPvxq6sTzAJ--20" value="TRUE" style="edgeLabel;html=1;align=center;verticalAlign=middle;resizable=0;points=[];" vertex="1" connectable="0" parent="TQOZhMuwaPvxq6sTzAJ--13">
          <mxGeometry x="-0.6533" relative="1" as="geometry">
            <mxPoint y="13" as="offset" />
          </mxGeometry>
        </mxCell>
        <mxCell id="TQOZhMuwaPvxq6sTzAJ--21" value="" style="edgeStyle=orthogonalEdgeStyle;rounded=0;orthogonalLoop=1;jettySize=auto;html=1;" edge="1" parent="1" source="TQOZhMuwaPvxq6sTzAJ--4" target="TQOZhMuwaPvxq6sTzAJ--12">
          <mxGeometry relative="1" as="geometry" />
        </mxCell>
        <mxCell id="TQOZhMuwaPvxq6sTzAJ--22" style="edgeStyle=orthogonalEdgeStyle;rounded=0;orthogonalLoop=1;jettySize=auto;html=1;entryX=-0.037;entryY=0.442;entryDx=0;entryDy=0;entryPerimeter=0;" edge="1" parent="1" source="TQOZhMuwaPvxq6sTzAJ--4" target="TQOZhMuwaPvxq6sTzAJ--23">
          <mxGeometry relative="1" as="geometry">
            <mxPoint x="500" y="355" as="targetPoint" />
          </mxGeometry>
        </mxCell>
        <mxCell id="TQOZhMuwaPvxq6sTzAJ--24" value="FALSE" style="edgeLabel;html=1;align=center;verticalAlign=middle;resizable=0;points=[];" vertex="1" connectable="0" parent="TQOZhMuwaPvxq6sTzAJ--22">
          <mxGeometry x="-0.1347" y="-1" relative="1" as="geometry">
            <mxPoint x="2" as="offset" />
          </mxGeometry>
        </mxCell>
        <mxCell id="TQOZhMuwaPvxq6sTzAJ--4" value="i &amp;lt; size - 1" style="rhombus;whiteSpace=wrap;html=1;" vertex="1" parent="1">
          <mxGeometry x="230" y="330" width="140" height="50" as="geometry" />
        </mxCell>
        <mxCell id="TQOZhMuwaPvxq6sTzAJ--6" value="" style="edgeStyle=orthogonalEdgeStyle;rounded=0;orthogonalLoop=1;jettySize=auto;html=1;entryX=0.502;entryY=-0.031;entryDx=0;entryDy=0;entryPerimeter=0;" edge="1" parent="1" source="TQOZhMuwaPvxq6sTzAJ--1" target="TQOZhMuwaPvxq6sTzAJ--7">
          <mxGeometry relative="1" as="geometry">
            <mxPoint x="300" y="90" as="sourcePoint" />
            <mxPoint x="300" y="120" as="targetPoint" />
          </mxGeometry>
        </mxCell>
        <mxCell id="TQOZhMuwaPvxq6sTzAJ--10" value="" style="edgeStyle=orthogonalEdgeStyle;rounded=0;orthogonalLoop=1;jettySize=auto;html=1;" edge="1" parent="1" source="TQOZhMuwaPvxq6sTzAJ--7" target="TQOZhMuwaPvxq6sTzAJ--9">
          <mxGeometry relative="1" as="geometry" />
        </mxCell>
        <mxCell id="TQOZhMuwaPvxq6sTzAJ--7" value="Получение строки с клавиатуры&lt;br&gt;string[size]" style="shape=parallelogram;perimeter=parallelogramPerimeter;whiteSpace=wrap;html=1;fixedSize=1;" vertex="1" parent="1">
          <mxGeometry x="210" y="130" width="180" height="60" as="geometry" />
        </mxCell>
        <mxCell id="TQOZhMuwaPvxq6sTzAJ--11" value="" style="edgeStyle=orthogonalEdgeStyle;rounded=0;orthogonalLoop=1;jettySize=auto;html=1;" edge="1" parent="1" source="TQOZhMuwaPvxq6sTzAJ--9" target="TQOZhMuwaPvxq6sTzAJ--4">
          <mxGeometry relative="1" as="geometry" />
        </mxCell>
        <mxCell id="TQOZhMuwaPvxq6sTzAJ--9" value="i = 0&lt;br&gt;stringOut[] = Empty&lt;br&gt;k = 0" style="rounded=0;whiteSpace=wrap;html=1;" vertex="1" parent="1">
          <mxGeometry x="210" y="220" width="180" height="80" as="geometry" />
        </mxCell>
        <mxCell id="TQOZhMuwaPvxq6sTzAJ--15" value="" style="edgeStyle=orthogonalEdgeStyle;rounded=0;orthogonalLoop=1;jettySize=auto;html=1;" edge="1" parent="1" source="TQOZhMuwaPvxq6sTzAJ--12" target="TQOZhMuwaPvxq6sTzAJ--14">
          <mxGeometry relative="1" as="geometry" />
        </mxCell>
        <mxCell id="TQOZhMuwaPvxq6sTzAJ--19" value="TRUE" style="edgeLabel;html=1;align=center;verticalAlign=middle;resizable=0;points=[];" vertex="1" connectable="0" parent="TQOZhMuwaPvxq6sTzAJ--15">
          <mxGeometry x="-0.2333" relative="1" as="geometry">
            <mxPoint as="offset" />
          </mxGeometry>
        </mxCell>
        <mxCell id="TQOZhMuwaPvxq6sTzAJ--17" style="edgeStyle=orthogonalEdgeStyle;rounded=0;orthogonalLoop=1;jettySize=auto;html=1;" edge="1" parent="1" source="TQOZhMuwaPvxq6sTzAJ--12">
          <mxGeometry relative="1" as="geometry">
            <mxPoint x="70" y="460" as="targetPoint" />
          </mxGeometry>
        </mxCell>
        <mxCell id="TQOZhMuwaPvxq6sTzAJ--18" value="FALSE" style="edgeLabel;html=1;align=center;verticalAlign=middle;resizable=0;points=[];" vertex="1" connectable="0" parent="TQOZhMuwaPvxq6sTzAJ--17">
          <mxGeometry x="-0.0448" y="1" relative="1" as="geometry">
            <mxPoint as="offset" />
          </mxGeometry>
        </mxCell>
        <mxCell id="TQOZhMuwaPvxq6sTzAJ--12" value="string[i] Lenght &amp;lt; 3" style="rhombus;whiteSpace=wrap;html=1;" vertex="1" parent="1">
          <mxGeometry x="170" y="420" width="260" height="80" as="geometry" />
        </mxCell>
        <mxCell id="TQOZhMuwaPvxq6sTzAJ--16" style="edgeStyle=orthogonalEdgeStyle;rounded=0;orthogonalLoop=1;jettySize=auto;html=1;entryX=0.5;entryY=1;entryDx=0;entryDy=0;" edge="1" parent="1" source="TQOZhMuwaPvxq6sTzAJ--14" target="TQOZhMuwaPvxq6sTzAJ--28">
          <mxGeometry relative="1" as="geometry">
            <Array as="points">
              <mxPoint x="70" y="590" />
            </Array>
          </mxGeometry>
        </mxCell>
        <mxCell id="TQOZhMuwaPvxq6sTzAJ--14" value="stringOut [k] = string[i]&lt;br&gt;k = k + 1" style="whiteSpace=wrap;html=1;" vertex="1" parent="1">
          <mxGeometry x="170" y="560" width="260" height="60" as="geometry" />
        </mxCell>
        <mxCell id="TQOZhMuwaPvxq6sTzAJ--26" style="edgeStyle=orthogonalEdgeStyle;rounded=0;orthogonalLoop=1;jettySize=auto;html=1;entryX=0.5;entryY=0;entryDx=0;entryDy=0;" edge="1" parent="1" source="TQOZhMuwaPvxq6sTzAJ--23" target="TQOZhMuwaPvxq6sTzAJ--25">
          <mxGeometry relative="1" as="geometry" />
        </mxCell>
        <mxCell id="TQOZhMuwaPvxq6sTzAJ--23" value="stringOut" style="shape=document;whiteSpace=wrap;html=1;boundedLbl=1;" vertex="1" parent="1">
          <mxGeometry x="510" y="320" width="120" height="80" as="geometry" />
        </mxCell>
        <mxCell id="TQOZhMuwaPvxq6sTzAJ--25" value="FINISH" style="rounded=1;whiteSpace=wrap;html=1;" vertex="1" parent="1">
          <mxGeometry x="510" y="470" width="120" height="60" as="geometry" />
        </mxCell>
        <mxCell id="TQOZhMuwaPvxq6sTzAJ--27" value="&lt;font style=&quot;font-size: 14px;&quot;&gt;&lt;em style=&quot;box-sizing: border-box; color: rgb(44, 45, 48); font-family: Onest, Roboto, &amp;quot;San Francisco&amp;quot;, &amp;quot;Helvetica Neue&amp;quot;, Helvetica, Arial; text-align: start; background-color: rgb(255, 255, 255);&quot;&gt;Задача&lt;/em&gt;:&lt;/font&gt; &lt;font style=&quot;font-size: 14px;&quot;&gt;Написать программу, которая из имеющегося &lt;br&gt;массива строк формирует новый массив из строк, длина &lt;br&gt;которых меньше, либо равна 3 символам.&amp;nbsp;&lt;/font&gt;" style="text;html=1;align=center;verticalAlign=middle;resizable=0;points=[];autosize=1;strokeColor=none;fillColor=none;" vertex="1" parent="1">
          <mxGeometry x="430" y="20" width="390" height="60" as="geometry" />
        </mxCell>
        <mxCell id="TQOZhMuwaPvxq6sTzAJ--29" style="edgeStyle=orthogonalEdgeStyle;rounded=0;orthogonalLoop=1;jettySize=auto;html=1;entryX=0;entryY=0.5;entryDx=0;entryDy=0;" edge="1" parent="1" source="TQOZhMuwaPvxq6sTzAJ--28" target="TQOZhMuwaPvxq6sTzAJ--4">
          <mxGeometry relative="1" as="geometry">
            <Array as="points">
              <mxPoint x="70" y="355" />
            </Array>
          </mxGeometry>
        </mxCell>
        <mxCell id="TQOZhMuwaPvxq6sTzAJ--28" value="i = i + 1" style="rounded=0;whiteSpace=wrap;html=1;" vertex="1" parent="1">
          <mxGeometry x="10" y="370" width="120" height="60" as="geometry" />
        </mxCell>
      </root>
    </mxGraphModel>
  </diagram>
</mxfile>
